<svg width="24" height="24" viewBox="0 0 24 24" fill="none" xmlns="http://www.w3.org/2000/svg">
<path d="M12.0098 6C11.2681 6 10.5431 6.21993 9.92638 6.63199C9.30969 7.04404 8.82905 7.62971 8.54522 8.31494C8.26139 9.00016 8.18713 9.75416 8.33182 10.4816C8.47652 11.209 8.83367 11.8772 9.35812 12.4016C9.88256 12.9261 10.5507 13.2832 11.2782 13.4279C12.0056 13.5726 12.7596 13.4984 13.4448 13.2145C14.1301 12.9307 14.7157 12.4501 15.1278 11.8334C15.5398 11.2167 15.7598 10.4917 15.7598 9.75C15.7573 8.7562 15.3614 7.80381 14.6587 7.10108C13.956 6.39836 13.0036 6.00247 12.0098 6ZM12.0098 12C11.5648 12 11.1297 11.868 10.7597 11.6208C10.3897 11.3736 10.1013 11.0222 9.93104 10.611C9.76074 10.1999 9.71618 9.7475 9.803 9.31105C9.88982 8.87459 10.1041 8.47368 10.4188 8.15901C10.7334 7.84434 11.1344 7.63005 11.5708 7.54323C12.0073 7.45642 12.4597 7.50097 12.8708 7.67127C13.2819 7.84157 13.6333 8.12996 13.8806 8.49997C14.1278 8.86998 14.2598 9.30499 14.2598 9.75C14.2573 10.346 14.0195 10.9168 13.598 11.3383C13.1766 11.7597 12.6057 11.9975 12.0098 12ZM12.0098 1.5C9.82249 1.50248 7.72551 2.37247 6.17888 3.91911C4.63224 5.46575 3.76225 7.56273 3.75977 9.75C3.75977 12.6937 5.11914 15.8156 7.69727 18.7687C8.85616 20.1064 10.1576 21.3136 11.5785 22.3687C11.7063 22.4538 11.8563 22.4992 12.0098 22.4992C12.1632 22.4992 12.3133 22.4538 12.441 22.3687C13.8661 21.3151 15.1708 20.1079 16.3316 18.7687C18.9004 15.8156 20.2598 12.6937 20.2598 9.75C20.2573 7.56273 19.3873 5.46575 17.8407 3.91911C16.294 2.37247 14.197 1.50248 12.0098 1.5ZM12.0098 20.8125C10.4629 19.5937 5.25977 15.1125 5.25977 9.75C5.25977 7.95979 5.97092 6.2429 7.23679 4.97703C8.50267 3.71116 10.2196 3 12.0098 3C13.8 3 15.5169 3.71116 16.7827 4.97703C18.0486 6.2429 18.7598 7.95979 18.7598 9.75C18.7598 15.1125 13.5566 19.5937 12.0098 20.8125Z" fill="#B6B6B6"/>
</svg>
