<svg width="24" height="24" viewBox="0 0 24 24" fill="none" xmlns="http://www.w3.org/2000/svg">
<path d="M12.709 2.1601C12.5759 2.05635 12.412 2 12.2432 2C12.0745 2 11.9106 2.05635 11.7775 2.1601L1 10.5639L1.93225 11.7429L3.25 10.7154V19.9996C3.25079 20.3972 3.40908 20.7783 3.69022 21.0594C3.97135 21.3405 4.35242 21.4988 4.75 21.4996H19.75C20.1476 21.4988 20.5287 21.3405 20.8098 21.0594C21.0909 20.7783 21.2492 20.3972 21.25 19.9996V10.7221L22.5677 11.7496L23.5 10.5706L12.709 2.1601ZM13.75 19.9996H10.75V13.9996H13.75V19.9996ZM15.25 19.9996V13.9996C15.2496 13.6019 15.0914 13.2206 14.8102 12.9394C14.529 12.6582 14.1477 12.5 13.75 12.4996H10.75C10.3523 12.5 9.971 12.6582 9.68978 12.9394C9.40856 13.2206 9.2504 13.6019 9.25 13.9996V19.9996H4.75V9.5461L12.25 3.7036L19.75 9.5536V19.9996H15.25Z" fill="#FFB144"/>
</svg>
