<svg width="24" height="24" viewBox="0 0 24 24" fill="none" xmlns="http://www.w3.org/2000/svg">
<path d="M16.2185 1.96965L8.41558 9.77255C5.15049 13.0458 2.67789 17.023 1.18717 21.3994C1.11608 21.6064 1.10476 21.8293 1.1545 22.0424C1.20425 22.2555 1.31304 22.4503 1.46842 22.6045L1.4725 22.6086C1.58062 22.7175 1.70922 22.804 1.8509 22.8631C1.99257 22.9221 2.14452 22.9526 2.29801 22.9527C2.42717 22.9526 2.55544 22.9314 2.6777 22.8897C7.05413 21.399 11.0313 18.9264 14.3046 15.6613L22.1073 7.85841C22.8881 7.07752 23.3269 6.0184 23.3269 4.91405C23.3269 3.80969 22.8882 2.75057 22.1073 1.96967C21.7206 1.58301 21.2616 1.27629 20.7564 1.06703C20.2512 0.85777 19.7097 0.750063 19.1629 0.750061C18.0586 0.750057 16.9994 1.18876 16.2185 1.96965ZM13.2437 14.6006C10.2945 17.5421 6.74231 19.809 2.8322 21.2447C4.26794 17.3346 6.53473 13.7824 9.47622 10.8332L14.1244 6.18502L17.8919 9.95246L13.2437 14.6006ZM21.0466 6.79777L18.9525 8.89182L15.1851 5.12438L17.2792 3.03029C17.5264 2.78232 17.8201 2.58554 18.1435 2.45118C18.4669 2.31683 18.8135 2.24754 19.1637 2.24729C19.5139 2.24704 19.8607 2.31582 20.1842 2.44971C20.5078 2.5836 20.8018 2.77996 21.0494 3.02757C21.297 3.27518 21.4933 3.56917 21.6272 3.89273C21.7611 4.21629 21.8299 4.56308 21.8296 4.91324C21.8294 5.26341 21.7601 5.61009 21.6257 5.93346C21.4914 6.25682 21.2946 6.55053 21.0466 6.79777Z" fill="#B6B6B6"/>
</svg>
