<svg width="24" height="24" viewBox="0 0 24 24" fill="none" xmlns="http://www.w3.org/2000/svg">
<path d="M9 6.639V20.5M15 3V17M3 8.71C3 7.236 3 6.5 3.393 6.07C3.53209 5.91703 3.70129 5.79447 3.89 5.71C4.422 5.474 5.121 5.707 6.519 6.173C7.586 6.529 8.119 6.707 8.659 6.688C8.8571 6.68149 9.05406 6.65536 9.247 6.61C9.772 6.485 10.24 6.173 11.176 5.55L12.558 4.628C13.758 3.828 14.357 3.428 15.045 3.337C15.733 3.244 16.417 3.472 17.784 3.928L18.949 4.316C19.939 4.646 20.434 4.811 20.717 5.204C21 5.597 21 6.119 21 7.162V15.291C21 16.764 21 17.501 20.607 17.931C20.4677 18.0832 20.2985 18.2051 20.11 18.289C19.578 18.526 18.879 18.293 17.481 17.827C16.414 17.471 15.881 17.293 15.341 17.312C15.1429 17.3185 14.9459 17.3446 14.753 17.39C14.228 17.515 13.76 17.827 12.824 18.45L11.442 19.372C10.242 20.172 9.643 20.572 8.955 20.663C8.267 20.756 7.583 20.528 6.216 20.072L5.051 19.684C4.061 19.354 3.566 19.189 3.283 18.796C3 18.403 3 17.88 3 16.838V8.709V8.71Z" stroke="white" stroke-width="1.7"/>
</svg>
